<svg xmlns="http://www.w3.org/2000/svg" viewBox="0 0 60 60"><path d="M50.73 8.345c-.016-.018-.022-.041-.04-.057-.142-.135-.289-.262-.434-.394A30.622 30.622 0 0 0 48 6.017l-.126-.094a30.103 30.103 0 0 0-1.069-.761l-.087-.059a29.593 29.593 0 0 0-2.389-1.451l-.08-.044a30.514 30.514 0 0 0-1.194-.612l-.112-.054a28.589 28.589 0 0 0-1.184-.536l-.164-.07c-.38-.159-.763-.31-1.15-.454l-.235-.088c-.364-.132-.73-.255-1.099-.373-.104-.033-.208-.068-.313-.1a28.262 28.262 0 0 0-1.043-.297c-.13-.035-.26-.072-.391-.105a29.626 29.626 0 0 0-.99-.229c-.153-.033-.306-.069-.46-.1a30.39 30.39 0 0 0-.949-.17c-.172-.029-.342-.061-.515-.086-.31-.046-.623-.083-.935-.119-.18-.021-.358-.046-.538-.064-.333-.033-.668-.055-1.003-.077-.161-.01-.32-.026-.481-.034C30.999.013 30.501 0 30 0s-.999.013-1.496.038c-.161.008-.32.024-.481.034-.335.022-.67.044-1.003.077-.181.018-.359.043-.538.064-.313.037-.625.073-.935.119-.173.026-.343.058-.515.086a30.39 30.39 0 0 0-.949.17c-.154.031-.307.067-.46.1-.331.072-.662.146-.99.229-.131.033-.261.07-.391.105-.349.093-.697.191-1.043.297-.105.032-.208.066-.313.1a28.4 28.4 0 0 0-1.099.373l-.235.088c-.386.144-.77.295-1.15.454l-.164.07a29.2 29.2 0 0 0-1.184.536l-.112.054c-.402.195-.8.399-1.194.612l-.08.044a30.694 30.694 0 0 0-2.389 1.451l-.087.059c-.361.245-.718.499-1.069.761l-.126.094c-.334.251-.662.51-.987.776l-.166.137c-.307.256-.609.518-.908.787l-.195.177c-.141.134-.289.261-.431.396-.017.016-.024.04-.04.057C3.564 13.81 0 21.494 0 30c0 16.542 13.458 30 30 30s30-13.458 30-30c0-8.506-3.564-16.19-9.27-21.655zM39 6a1 1 0 1 1 2 0v10.032a1 1 0 1 1-2 0V6zM29 3a1 1 0 1 1 2 0v20.032a1 1 0 1 1-2 0V3zM19 6a1 1 0 1 1 2 0v10.032a1 1 0 1 1-2 0V6zm1 14.313l9.335 7.469a1.065 1.065 0 0 0 .696.218c.227 0 .466-.084.644-.226L40 20.313l8.58 6.864-9.338 11.699C36.805 36.404 33.505 35 30 35s-6.805 1.404-9.241 3.875l-9.338-11.698L20 20.313zM30 58C14.561 58 2 45.439 2 30c0-7.083 2.648-13.555 7-18.491V27c0 .227.077.446.218.624l10.706 13.412 9.245 11.581a.947.947 0 0 0 .144.146l.01.005.013.013c.057.045.128.073.195.105.034.016.062.04.097.052a1.017 1.017 0 0 0 .403.062c.114 0 .231-.022.342-.061.035-.012.064-.036.097-.052.068-.032.138-.06.195-.105l.013-.013.01-.005a.947.947 0 0 0 .144-.146l9.245-11.581 10.706-13.412c.14-.179.217-.398.217-.625V11.509c4.352 4.936 7 11.408 7 18.491 0 15.439-12.561 28-28 28z"/></svg>