<svg xmlns="http://www.w3.org/2000/svg" viewBox="0 0 280 280"><path d="M183.679 4.634l91.683 91.683c6.178 6.178 6.178 16.207 0 22.385L118.695 275.359c-6.178 6.187-16.207 6.187-22.385 0L4.637 183.676c-6.178-6.178-6.178-16.198 0-22.376L161.295 4.634c6.187-6.179 16.206-6.179 22.384 0z" fill="#26a6d1"/><path d="M84.34 81.597L4.637 161.3c-6.178 6.178-6.178 16.198 0 22.376l91.683 91.683c6.178 6.187 16.207 6.187 22.385 0l79.703-79.694L84.34 81.597z" fill="#e2574c"/><path d="M40.585 125.352L4.637 161.3c-6.178 6.178-6.178 16.198 0 22.376l91.683 91.683c6.178 6.187 16.207 6.187 22.385 0l35.949-35.94L40.585 125.352z" fill="#cb4e44"/><path d="M20.416 145.548l114.041 114.041-10.555 10.555L9.861 156.103l10.555-10.555z" fill="#eae5e4"/></svg>