<svg data-name="Layer 1" xmlns="http://www.w3.org/2000/svg" viewBox="0 0 504.19 504.48"><path d="M492.38 145.77L172.19 461.64S8.35 510.47.85 503s37.43-175.27 37.43-175.27l320.2-315.87a38.53 38.53 0 0 1 55.53 0l78.38 78.77c15.35 14.97 15.35 39.78-.01 55.14z" fill="#161616"/><path d="M66.24 367.11l351.71-351.7-3.94-3.94a38.87 38.87 0 0 0-55.53.39L38.67 328.12s-.79 3.15-2.36 8.67l29.93 30.33z" fill="#262626"/><path d="M501.44 132.77a39.84 39.84 0 0 0-8.67-42.54l-7.92-7.87-351.7 351.7 30.72 30.33q6.5-1.77 8.27-2.36z"/><path d="M.47 501.81l2.38 2.36c18.51 2.76 160.69-39.39 169.35-42.14l.39-.39s-9.06-42.54-16.93-50c-7.88-7.88-42.14-9.06-50-16.54-7.88-7.88-8.67-42.14-16.93-50-7.88-7.88-48-16.15-50-16.54 0-.39-41.36 153.6-38.21 173.29z" fill="#ffcaba"/><path d="M.08 499.84c2.77-4.73 16.54-29.15 88.22-154.78-7.88-7.88-48-16.15-50-16.54.37-.4-38.62 145.33-38.22 171.32z" fill="#ffdcd2"/><path d="M.08 500.23v1.18l2.36 2.36c18.51 2.76 160.69-39.39 169.35-42.14l.39-.39s-8.66-42.14-16.54-50C25.28 486.05 3.62 498.26.08 500.23z" fill="#e5b5a7"/><path d="M27.25 473.06c-5.12-5.12-13.4-9.06-21.66-9.85-4.33 22.06-7.09 38.21-4.74 40.57 2 2 16.93-.39 36.63-4.73.01-9.84-4.32-20.05-10.23-25.99z" fill="#161616"/></svg>